; OM File Header - Saved 2015/07/19 19:08:20
; (6.050102 :patc (om-make-point 172 10) (om-make-point 775 56) (om-make-point 500 400) "" 183 0 "2015/07/12 16:46:15" "2015/07/19 12:22:52")
; End File Header
(in-package :om)(load-lib-for (quote ("t2l-lib")))(setf *om-current-persistent* (om-load-patch1 "ita" (quote ((om-load-boxcall (quote bastype) "aux" (quote t) (quote nil) (om-make-point 139 282) (om-make-point 18 30) (quote t) "t" nil) (om-load-boxcall (quote lispfun) "BEST-ITA-MASHUP" (quote t2l::best-ita-mashup) (quote ((om-load-inputfun (quote input-funbox) "LIST" "LIST" nil) (om-load-inputkeyword (quote input-keyword) "" "character-count" (quote :character-count) nil nil))) (om-make-point 78 316) nil nil nil nil 1) (om-load-boxcall (quote lispfun) "SPACE-SPLIT" (quote t2l::space-split) (quote ((om-load-inputfun (quote input-funbox) "STRING" "STRING" nil))) (om-make-point 23 225) nil nil "l" nil 1) (om-load-boxcall (quote lispfun) "MAPCAR" (quote mapcar) (quote ((om-load-inputfun (quote input-funbox) "FUNCTION" "FUNCTION" nil) (om-load-inputfun (quote input-funbox) "LIST" "LIST" nil))) (om-make-point 64 268) (om-make-point 51 43) nil nil nil 1) (om-load-boxcall (quote genfun) "READ-TEXTFILE" (quote t2l:read-textfile) (quote ((om-load-inputfun (quote input-funbox) "" "FILENAME" nil))) (om-make-point 111 134) nil nil nil nil 1) (om-load-boxcall (quote genfun) "FILE-CHOOSER" (quote file-chooser) (quote nil) (om-make-point 114 60) nil (list (om-make-pathname :directory (quote (:absolute "Users" "owen" "Desktop")) :device :unspecific :host nil :name "MOVIES" :type "TXT")) "x" nil 1) (om-load-boxcall (quote genfun) "PERMUT-RANDOM" (quote permut-random) (quote ((om-load-inputfun (quote input-funbox) "a list" "LIST" nil))) (om-make-point 99 209) nil nil nil nil 1))) (quote ((3 0 1 0 nil 0) (0 0 1 1 nil 0) (2 0 3 0 nil 0) (6 0 3 1 nil 0) (5 0 4 0 nil 0) (4 0 6 0 nil 0))) nil 6.050102))
