; OM File Header - Saved 2016/01/26 0:05:14
; (6.050102 :patc (om-make-point 172 10) (om-make-point 814 173) (om-make-point 436 418) "" 183 0 nil "2016/01/20 14:01:53")
; End File Header
(in-package :om)(load-lib-for (quote ("t2l-lib")))(setf *om-current-persistent* (om-load-patch1 "ita" (quote ((om-load-boxcall (quote abstraction) "filter-words" (om-load-patch-abs1 "filter-words" (quote ((om-load-boxcall (quote bastype) "aux" (quote t) (quote nil) (om-make-point 119 182) (om-make-point 65 28) (list "NINJA") "(\"NINJA\")" nil) (om-load-boxout "output" 0 (om-make-point 5 240) (quote ((om-load-inputfun (quote input-funbox) "" "out" nil))) nil nil))) (quote ((0 0 1 0 nil 0))) 6.050102 nil "" (om-make-point 200 200) (om-make-point 1133 460)) (quote nil) (om-make-point 272 195) nil nil nil "filter-words") (om-load-boxcall (quote bastype) "aux 2" (quote t) (quote nil) (om-make-point 173 100) (om-make-point 18 28) (quote t) "t" nil) (om-load-boxcall (quote bastype) "aux" (quote t) (quote nil) (om-make-point 216 234) (om-make-point 18 28) (quote t) "t" nil) (om-load-boxcall (quote lispfun) "BEST-ITA-MASHUP" (quote t2l::best-ita-mashup) (quote ((om-load-inputfun (quote input-funbox) "LIST" "LIST" nil) (om-load-inputkeyword (quote input-keyword) "" "character-count" (quote :character-count) nil nil) (om-load-inputkeyword (quote input-keyword) "" "filter-words" (quote :filter-words) nil nil))) (om-make-point 123 269) (om-make-point 198 42) nil nil nil 1) (om-load-boxcall (quote genfun) "READ-TEXTFILE" (quote t2l:read-textfile) (quote ((om-load-inputfun (quote input-funbox) "" "FILENAME" nil) (om-load-inputkeyword (quote input-keyword) "" "read-as-uppercase" (quote :read-as-uppercase) nil nil))) (om-make-point 111 134) nil nil nil nil 1) (om-load-boxcall (quote genfun) "FILE-CHOOSER" (quote file-chooser) (quote nil) (om-make-point 103 62) nil (list (om-make-pathname :directory (quote (:absolute "Users" "owen" "music-conversion" "lib" "t2l-lib")) :device nil :host "C" :name "MOVIES" :type "txt")) "x" nil 1) (om-load-boxcall (quote genfun) "PERMUT-RANDOM" (quote permut-random) (quote ((om-load-inputfun (quote input-funbox) "a list" "LIST" nil))) (om-make-point 99 209) nil nil nil nil 1))) (quote ((6 0 3 0 nil 0) (2 0 3 1 nil 0) (0 0 3 2 nil 0) (5 0 4 0 nil 0) (1 0 4 1 nil 0) (4 0 6 0 nil 0))) nil 6.050102))
