; OM File Header - Saved 2015/11/09 9:46:22
; (6.050102 :patc (om-make-point 118 10) (om-make-point 535 47) (om-make-point 500 525) "" 183 0 nil nil)
; End File Header
(in-package :om)(load-lib-for (quote ("t2l-lib")))(setf *om-current-persistent* (om-load-patch1 "soundex-lyrics-tool" (quote ((om-load-boxcall (quote lispfun) "BEST-RHYME" (quote t2l::best-rhyme) (quote ((om-load-inputfun (quote input-funbox) "INPUT-ENTRY" "INPUT-ENTRY" nil) (om-load-inputfun (quote input-funbox) "SOUNDEX-DB" "SOUNDEX-DB" nil))) (om-make-point 337 428) nil nil nil nil 1) (om-load-boxcall (quote lispfun) "PRINT 2" (quote print) (quote ((om-load-inputfun (quote input-funbox) "SOMETHING" "SOMETHING" nil))) (om-make-point 332 342) nil nil nil nil 1) (om-load-boxcall (quote lispfun) "CDR 2" (quote cdr) (quote ((om-load-inputfun (quote input-funbox) "X" "X" nil))) (om-make-point 419 298) nil nil nil nil 1) (om-load-boxcall (quote lispfun) "CAR 2" (quote car) (quote ((om-load-inputfun (quote input-funbox) "X" "X" nil))) (om-make-point 338 298) nil nil nil nil 1) (om-load-boxcall (quote genfun) "OM-CONVERT-PHRASE-LIST-TO-SOUNDEX 2" (quote t2l:om-convert-phrase-list-to-soundex) (quote ((om-load-inputfun (quote input-funbox) "" "STRINGS" nil))) (om-make-point 261 240) nil nil "&" nil 1) (om-load-boxcall (quote genfun) "READ-TEXTFILE 2" (quote t2l:read-textfile) (quote ((om-load-inputfun (quote input-funbox) "" "FILENAME" nil))) (om-make-point 330 103) nil nil nil nil 1) (om-load-boxcall (quote genfun) "FILE-CHOOSER 2" (quote file-chooser) (quote nil) (om-make-point 333 29) nil (list (om-make-pathname :directory (quote (:absolute "Users" "owen" "Desktop")) :device :unspecific :host nil :name "MOVIES" :type "TXT")) "x" nil 1) (om-load-boxcall (quote genfun) "PERMUT-RANDOM 2" (quote permut-random) (quote ((om-load-inputfun (quote input-funbox) "a list" "LIST" nil))) (om-make-point 318 178) nil nil nil nil 1) (om-load-boxcall (quote lispfun) "PRINT" (quote print) (quote ((om-load-inputfun (quote input-funbox) "SOMETHING" "SOMETHING" nil))) (om-make-point 93 353) nil nil nil nil 1) (om-load-boxcall (quote lispfun) "ONE-VALUE" (quote screamer:one-value) (quote ((om-load-inputfun (quote input-funbox) "EXPRESSION" "EXPRESSION" nil))) (om-make-point 108 450) nil nil nil nil 1) (om-load-boxcall (quote lispfun) "RHYMES-WITH" (quote t2l::rhymes-with) (quote ((om-load-inputfun (quote input-funbox) "INPUT-ENTRY" "INPUT-ENTRY" nil) (om-load-inputfun (quote input-funbox) "SOUNDEX-DB" "SOUNDEX-DB" nil))) (om-make-point 102 400) nil nil nil nil 1) (om-load-boxcall (quote lispfun) "CDR" (quote cdr) (quote ((om-load-inputfun (quote input-funbox) "X" "X" nil))) (om-make-point 180 309) nil nil nil nil 1) (om-load-boxcall (quote lispfun) "CAR" (quote car) (quote ((om-load-inputfun (quote input-funbox) "X" "X" nil))) (om-make-point 99 309) nil nil nil nil 1) (om-load-boxcall (quote genfun) "OM-CONVERT-PHRASE-LIST-TO-SOUNDEX" (quote t2l:om-convert-phrase-list-to-soundex) (quote ((om-load-inputfun (quote input-funbox) "" "STRINGS" nil))) (om-make-point 22 251) nil nil "&" nil 1) (om-load-boxcall (quote genfun) "PERMUT-RANDOM" (quote permut-random) (quote ((om-load-inputfun (quote input-funbox) "a list" "LIST" nil))) (om-make-point 79 189) nil nil nil nil 1) (om-load-boxcall (quote genfun) "FILE-CHOOSER" (quote file-chooser) (quote nil) (om-make-point 94 40) nil (list (om-make-pathname :directory (quote (:absolute "Users" "owen" "Desktop")) :device :unspecific :host nil :name "MOVIES" :type "TXT")) "x" nil 1) (om-load-boxcall (quote genfun) "READ-TEXTFILE" (quote t2l:read-textfile) (quote ((om-load-inputfun (quote input-funbox) "" "FILENAME" nil))) (om-make-point 91 114) nil nil nil nil 1))) (quote ((1 0 0 0 nil 0) (2 0 0 1 nil 0) (3 0 1 0 nil 0) (4 0 2 0 nil 0) (4 0 3 0 nil 0) (7 0 4 0 nil 0) (6 0 5 0 nil 0) (5 0 7 0 nil 0) (12 0 8 0 nil 0) (10 0 9 0 nil 0) (8 0 10 0 nil 0) (11 0 10 1 nil 0) (13 0 11 0 nil 0) (13 0 12 0 nil 0) (14 0 13 0 nil 0) (16 0 14 0 nil 0) (15 0 16 0 nil 0))) nil 6.050102))
